HIERARCHY
ROOT Hips
{
  OFFSET 0 0 0
  CHANNELS 6 Xposition Yposition Zposition Zrotation Yrotation Xrotation
  JOINT LeftThigh
  {
    OFFSET 8.409438 0 -5.917753
    CHANNELS 3 Zrotation Yrotation Xrotation
    JOINT LeftLeg
    {
      OFFSET 0 0 -42.358652
      CHANNELS 3 Zrotation Yrotation Xrotation
      JOINT LeftFoot
      {
        OFFSET 0 0 -39.357303
        CHANNELS 3 Zrotation Yrotation Xrotation
      }
    }
  }
  JOINT RightThigh
  {
    OFFSET -8.409438 0 -5.917753
    CHANNELS 3 Zrotation Yrotation Xrotation
    JOINT RightLeg
    {
      OFFSET 0 0 -42.358652
      CHANNELS 3 Zrotation Yrotation Xrotation
      JOINT RightFoot
      {
        OFFSET 0 0 -39.357303
        CHANNELS 3 Zrotation Yrotation Xrotation
      }
    }
  }
  JOINT SpineLow
  {
    OFFSET 0 0 4.719101
    CHANNELS 3 Zrotation Yrotation Xrotation
    JOINT SpineMid
    {
      OFFSET 0 0 12.899191
      CHANNELS 3 Zrotation Yrotation Xrotation
      JOINT Chest
      {
        OFFSET 0 0 12.899191
        CHANNELS 3 Zrotation Yrotation Xrotation
        JOINT LeftShoulder
        {
          OFFSET 7.550562 1.41573 9.438202
          CHANNELS 3 Zrotation Yrotation Xrotation
          JOINT LeftArm
          {
            OFFSET 9.155056 0 4.247191
            CHANNELS 3 Zrotation Yrotation Xrotation
            JOINT LeftForearm
            {
              OFFSET 0 0 25.771955
              CHANNELS 3 Zrotation Yrotation Xrotation
              JOINT LeftHand
              {
                OFFSET 0 0 25.197169
                CHANNELS 3 Zrotation Yrotation Xrotation
              }
            }
          }
        }
        JOINT RightShoulder
        {
          OFFSET -7.550562 1.41573 9.438202
          CHANNELS 3 Zrotation Yrotation Xrotation
          JOINT RightArm
          {
            OFFSET -9.155056 0 4.247191
            CHANNELS 3 Zrotation Yrotation Xrotation
            JOINT RightForearm
            {
              OFFSET 0 0 -25.771955
              CHANNELS 3 Zrotation Yrotation Xrotation
              JOINT RightHand
              {
                OFFSET 0 0 -25.197169
                CHANNELS 3 Zrotation Yrotation Xrotation
              }
            }
          }
        }
        JOINT Neck
        {
          OFFSET 0 0 15.101124
          CHANNELS 3 Zrotation Yrotation Xrotation
          JOINT Head
          {
            OFFSET 0 0 11.325843
            CHANNELS 3 Zrotation Yrotation Xrotation
            End Site
            {
              OFFSET 0 0 14.157303
            }
          }
        }
      }
    }
  }
}
MOTION
Frames: 7
Frame Time: 0.0
0.0  101.685394  0.0  -2.148289  -28.463245  -103.169729  18.11609  -19.443333  13.947281  -2.943494  4.602908  22.90484  10.538928  6.521769  5.830335  -5.451462  4.60017  -5.323951  -1.469291  10.566771  13.243219  28.89396  2.816128  -0.515084  -6.432817  -1.706378  3.222247  -17.793191  -3.763855  9.197687  -17.793191  -3.763855  9.197687  5.238864  22.752038  4.468407  51.015251  56.853828  90.844415  -14.284346  -31.489118  117.519491  154.2769  -19.527946  -27.813254  27.719302  16.268304  25.227713  95.834297  -6.939558  65.393617  -49.05619  -32.170858  -114.292488  44.960692  31.840587  -11.226751  26.979243  7.038907  -0.525618  20.214879  5.268147  -0.707847  
0.0  101.685394  0.0  -1.993844  -28.033788  -103.196006  18.138428  -19.418042  13.994246  -3.02089  4.644611  22.64225  10.307654  6.45345  5.785345  -6.187897  4.818592  -5.263614  -1.621018  10.570656  13.111826  29.049937  2.805554  -0.510511  -6.351895  -1.662616  3.190608  -17.563962  -3.665493  9.095987  -17.563963  -3.665492  9.095987  5.179523  22.874264  4.683314  51.584195  57.415061  91.309367  -14.052147  -31.817064  117.068343  154.192625  -19.381978  -27.760043  27.561845  15.922433  25.548658  96.084913  -6.663242  65.314646  -50.380627  -32.174723  -113.948757  46.013945  31.012533  -10.905282  26.871479  7.068335  -0.424848  20.132796  5.2947  -0.632236  
0.0  101.685394  0.0  -1.877781  -27.428195  -103.244761  18.067318  -19.417614  14.044587  -3.24313  4.686427  22.33787  10.139303  6.421271  5.803215  -7.189969  5.00937  -5.168887  -1.543458  10.607141  12.95244  29.248105  2.821736  -0.46302  -6.297826  -1.630075  3.155871  -17.40977  -3.594277  8.990381  -17.40977  -3.594277  8.990381  5.05593  23.194112  5.084897  52.317519  58.245323  91.788597  -13.779225  -32.169686  116.54054  154.084613  -19.333534  -27.840272  27.60864  15.692621  26.050516  96.162478  -6.296845  65.048035  -51.553721  -31.540354  -113.1776  46.799144  30.796726  -10.659253  26.677206  7.08788  -0.370684  19.98652  5.311719  -0.590149  
0.0  101.685394  0.0  -1.684213  -27.008992  -103.447551  18.265284  -19.508791  14.243809  -3.56274  4.77677  21.986218  9.910256  6.364406  5.794259  -8.000396  5.214739  -5.014193  -1.340894  10.617504  12.916658  29.348943  2.868942  -0.445042  -6.194645  -1.572922  3.13698  -17.118532  -3.458925  8.919158  -17.118531  -3.458925  8.919158  5.246402  23.685925  5.639705  52.81245  59.081258  92.304362  -13.498571  -32.524251  115.976358  153.872466  -19.416758  -28.124193  27.454317  15.322825  26.401275  96.236437  -6.038774  64.805132  -52.966492  -30.936748  -112.35537  47.744538  30.416461  -10.525132  26.522568  7.094799  -0.255283  19.869298  5.321889  -0.501992  
0.0  101.685394  0.0  -1.54146  -26.306867  -103.586733  18.236556  -19.602509  14.382779  -3.911673  4.893684  21.655957  9.703762  6.330103  5.807505  -9.00887  5.483185  -4.888458  -1.175899  10.614359  12.821246  29.491865  2.905425  -0.384327  -6.136575  -1.538372  3.113891  -16.95382  -3.379379  8.844827  -16.953821  -3.379379  8.844827  5.142042  24.156119  6.128255  54.120398  60.253176  93.367492  -13.283133  -32.862163  115.409936  153.522178  -19.634174  -28.64155  27.482381  15.073501  26.825031  96.143875  -5.724079  64.424578  -54.391654  -30.023875  -111.41595  48.698305  30.223672  -10.261102  26.234448  7.105342  -0.243089  19.653278  5.330201  -0.489895  
0.0  101.685394  0.0  -1.341915  -25.854426  -103.795866  18.331517  -19.699733  14.559327  -4.126839  5.043399  21.400545  9.504582  6.284737  5.804662  -9.747727  5.777181  -4.784727  -0.731788  10.535044  12.895569  29.344074  2.948555  -0.381306  -6.028105  -1.493453  3.100185  -16.650449  -3.276092  8.791363  -16.65045  -3.276092  8.791363  5.136999  24.714015  6.633852  55.694352  61.491567  94.779304  -13.103539  -33.209762  114.842112  152.929643  -19.962194  -29.366277  27.376415  14.734329  27.183977  96.060237  -5.44098  64.060052  -56.398779  -29.781138  -110.727681  50.19773  29.238921  -10.124813  26.027186  7.155461  -0.149407  19.496591  5.371764  -0.419291  
0.0  101.685394  0.0  -1.188121  -25.084451  -103.876411  18.323194  -19.756529  14.67021  -4.56556  5.162654  21.025668  9.378958  6.253492  5.833433  -10.575129  6.109739  -4.693405  -0.583866  10.469667  12.80319  29.379898  2.984024  -0.319998  -5.969696  -1.470376  3.070169  -16.486413  -3.229054  8.701544  -16.486413  -3.229054  8.701544  5.22816  25.321631  7.134409  57.865811  62.937322  96.820812  -12.961177  -33.537234  114.314612  152.111087  -20.457544  -30.188116  27.447152  14.518082  27.664943  95.870876  -5.064849  63.510472  -57.982384  -28.608754  -109.728626  51.273191  29.062977  -9.695379  25.672274  7.16384  -0.173802  19.230989  5.376808  -0.433738  
